<?xml version="1.0" encoding="UTF-8" standalone="no"?>
<svg
   width="57"
   height="57"
   viewBox="0 0 57 57"
   fill="none"
   version="1.1"
   id="svg5"
   sodipodi:docname="o.svg"
   inkscape:version="1.4 (e7c3feb1, 2024-10-09)"
   xmlns:inkscape="http://www.inkscape.org/namespaces/inkscape"
   xmlns:sodipodi="http://sodipodi.sourceforge.net/DTD/sodipodi-0.dtd"
   xmlns="http://www.w3.org/2000/svg"
   xmlns:svg="http://www.w3.org/2000/svg">
  <defs
     id="defs5" />
  <sodipodi:namedview
     id="namedview5"
     pagecolor="#ffffff"
     bordercolor="#000000"
     borderopacity="0.25"
     inkscape:showpageshadow="2"
     inkscape:pageopacity="0.0"
     inkscape:pagecheckerboard="0"
     inkscape:deskcolor="#d1d1d1"
     inkscape:zoom="1.342"
     inkscape:cx="26.453055"
     inkscape:cy="21.982116"
     inkscape:window-width="1200"
     inkscape:window-height="1186"
     inkscape:window-x="1800"
     inkscape:window-y="60"
     inkscape:window-maximized="0"
     inkscape:current-layer="svg5" />
  <path
     d="M 28.5,57 C 23.281,57 12.666,57 8.0480002,57 -0.52899978,56.555 0.24100022,57.891 0.13100022,54.551 -9.9977723e-4,50.543 2.2276677e-7,33.725 2.2276677e-7,28.5 2.2276677e-7,23.216 1.2600002,18.436 3.7820002,14.161 6.3620002,9.827 9.8220002,6.383 14.162,3.83 18.501,1.277 23.281,0 28.5,0 33.777,0 38.557,1.277 42.838,3.83 47.177,6.383 50.608,9.827 53.129,14.161 55.71,18.436 57,23.216 57,28.5 57,33.725 55.71,38.505 53.129,42.839 50.608,47.173 47.177,50.617 42.838,53.17 38.557,55.723 33.777,57 28.5,57 Z m 0,-13.894 c 2.639,0 5.014,-0.653 7.125,-1.959 2.169,-1.306 3.87,-3.058 5.102,-5.255 1.29,-2.256 1.935,-4.72 1.935,-7.392 0,-2.731 -0.645,-5.195 -1.935,-7.392 -1.232,-2.197 -2.933,-3.949 -5.102,-5.255 -2.111,-1.306 -4.486,-1.959 -7.125,-1.959 -2.639,0 -5.044,0.653 -7.213,1.959 -2.111,1.306 -3.812,3.058 -5.102,5.255 -1.232,2.197 -1.847,4.661 -1.847,7.392 0,2.672 0,10.465 0,12.647 0,2.182 1.464,1.826 3.443,1.826 2.639,0 8.08,0.133 10.719,0.133 z"
     fill="#000000"
     id="path1"
     style="fill:#ef8202;fill-opacity:1" />
</svg>
